<?xml version="1.0" encoding="UTF-8"?>
<svg width="644px" height="201px" viewBox="0 0 644 201" version="1.1" xmlns="http://www.w3.org/2000/svg" xmlns:xlink="http://www.w3.org/1999/xlink">
    <title>actual-white_logo</title>
    <g id="Page-1" stroke="none" stroke-width="1" fill="none" fill-rule="evenodd">
        <g id="Artboard" transform="translate(-1038.000000, -20.000000)" fill="#FFFFFF">
            <g id="actual-white_logo" transform="translate(1038.000000, 20.000000)">
                <g id="identity">
                    <polygon id="Fill-1" fill-opacity="0" points="0 132.0741 152.508 132.0871 76.253 0.0031"></polygon>
                    <polygon id="Fill-2" points="76.2534 0 60.5334 27.228 76.2564 27.228"></polygon>
                    <polygon id="Fill-3" points="76.2555 53.2405 45.4895 53.2405 30.4715 79.2525 76.2535 79.2525"></polygon>
                    <polygon id="Fill-4" points="15.4782 105.2658 0.0002 132.0738 76.2532 132.0738 76.2562 105.2658"></polygon>
                    <polygon id="Fill-5" points="76.2552 0 76.2552 53.237 121.7752 132.087 152.5082 132.087"></polygon>
                    <polygon id="Fill-6" points="137.0244 105.266 76.2514 105.266 76.2514 79.245 122.0024 79.245"></polygon>
                </g>
                <g id="inc" transform="translate(629.184100, 167.296600)">
                    <polygon id="Fill-40" points="0.4667 33.0748 0.3187 32.9268 0.0417 30.5918 0.1917 30.4428 14.3907 30.4428 14.5387 30.5918 14.5387 32.9268 14.3907 33.0748"></polygon>
                    <polygon id="Fill-42" points="0.4452 26.7692 0.2972 26.6212 0.0422 24.4982 0.1272 24.3072 8.7022 18.3222 10.0602 17.5152 0.4662 17.5152 0.3182 17.3672 0.0422 15.0322 0.1912 14.8832 14.3902 14.8832 14.5392 15.0322 14.5392 17.1752 14.4122 17.3672 5.7732 23.3942 4.5002 24.1372 14.3902 24.1372 14.5392 24.2862 14.5392 26.6212 14.3902 26.7692"></polygon>
                    <path d="M5.37,11.695 C1.868,11.695 0,9.36 0,5.71 C0,1.295 3.268,0.234 3.268,0.234 L3.46,0.319 L4.33,2.399 L4.266,2.611 C4.266,2.611 2.335,3.417 2.335,5.71 C2.335,7.62 3.417,9.021 5.518,9.021 L9.317,9.021 C11.482,9.021 12.459,7.62 12.459,5.71 C12.459,2.971 10.485,2.377 10.485,2.377 L10.422,2.165 L11.185,0.085 L11.377,0 C11.377,0 14.794,0.87 14.794,5.71 C14.794,9.36 12.969,11.695 9.487,11.695 L5.37,11.695 Z" id="Fill-44"></path>
                </g>
                <g id="actual" transform="translate(66.100600, 152.516500)">
                    <path d="M24.785,30.4502 L20.472,17.5112 L19.313,13.2622 L18.154,17.5112 L13.841,30.4502 L24.785,30.4502 Z M15.128,4.7642 L15.579,4.3132 L22.725,3.4762 L23.176,3.9272 L38.626,46.9952 L38.176,47.4462 L30.772,47.4462 L30.322,46.9952 L27.038,37.1452 L11.588,37.1452 L8.305,46.9952 L7.854,47.4462 L0.451,47.4462 L0,46.9952 L15.128,4.7642 Z" id="Fill-7"></path>
                    <path d="M41.6546,26.0083 C41.6546,19.0553 46.7406,14.2913 55.4956,14.2913 C60.9676,14.2913 65.7316,16.7383 67.9846,22.0813 L67.7276,22.6603 L61.8046,24.6563 L61.1606,24.3993 C60.0016,22.2103 57.8136,20.9223 55.1736,20.9223 C51.6336,20.9223 49.3796,22.9823 49.3796,26.9743 L49.3796,35.4713 C49.3796,39.4633 51.6336,41.5873 55.1736,41.5873 C58.6506,41.5873 60.2596,40.3003 61.4826,38.2393 L62.0616,37.9183 L68.0496,39.8493 L68.3706,40.4283 C66.3106,45.5793 61.6756,48.2183 55.4956,48.2183 C46.7406,48.2183 41.6546,43.3903 41.6546,36.5023 L41.6546,26.0083 Z" id="Fill-8"></path>
                    <path d="M75.7127,21.6948 L72.2367,21.6948 L71.7857,21.2448 L71.7857,15.5148 L72.2367,15.0648 L76.1637,15.0648 L76.9357,8.4338 L77.3867,7.9828 L82.9877,7.1458 L83.4377,7.5968 L83.4377,15.0648 L93.6737,15.0648 L94.1247,15.5148 L92.7087,21.2448 L92.2577,21.6948 L83.4377,21.6948 L83.4377,35.2788 C83.4377,38.8838 85.0477,41.4588 87.8157,41.4588 C90.3267,41.4588 92.8377,39.9138 92.8377,39.9138 L93.4807,40.0428 L96.0557,44.9998 L95.9267,45.6428 C93.4807,47.3168 90.2617,48.2178 87.0437,48.2178 C80.6697,48.2178 75.7127,43.9048 75.7127,35.5358 L75.7127,21.6948 Z" id="Fill-10"></path>
                    <path d="M99.9847,15.9013 L100.4357,15.4503 L107.2597,14.5493 L107.7107,15.0003 L107.7107,35.5363 C107.7107,39.9783 110.3497,41.7803 113.4397,41.7803 C114.5337,41.7803 116.9807,41.2013 118.5257,40.8153 L118.5257,15.9013 L118.9757,15.4503 L125.7997,14.5493 L126.2507,15.0003 L126.2507,39.9783 L128.1177,46.5443 L127.7317,47.0593 L121.4867,47.8963 L120.9717,47.5103 L118.9117,42.3593 C117.5597,45.9653 114.2767,48.2183 110.4137,48.2183 C105.1347,48.2183 99.9847,44.4203 99.9847,36.8883 L99.9847,15.9013 Z" id="Fill-12"></path>
                    <path d="M144.7948,41.9091 C148.0138,41.9091 150.8458,40.5571 150.8458,40.5571 L150.8458,30.3221 C149.1718,37.4671 140.4818,32.5751 140.4818,38.4971 C140.4818,40.4931 142.0908,41.9091 144.7948,41.9091 M137.0698,30.1281 C141.5758,27.3601 149.5588,29.0341 150.7818,27.2311 L150.7818,25.6221 C150.7818,21.8241 148.3358,20.9221 145.4388,20.9221 C142.9918,20.9221 140.6748,21.7591 138.8078,23.2401 L138.1638,23.1111 L134.8158,18.4111 L134.9448,17.7681 C137.7778,15.4511 141.7688,14.2911 145.5028,14.2911 C152.7768,14.2911 158.5068,17.1241 158.5068,24.7211 L158.5068,39.9781 L160.3738,46.5441 L159.9878,47.0591 L153.7428,47.8961 L153.2278,47.5101 L151.1678,42.2311 C151.1678,42.2311 149.1078,48.2181 142.2198,48.2181 C137.0698,48.2181 132.4988,44.4201 132.4988,38.4971 C132.4988,34.6991 134.2368,31.8671 137.0698,30.1281" id="Fill-14"></path>
                    <path d="M166.6209,1.352 L167.0709,0.901 L173.8949,0 L174.3459,0.451 L174.3459,38.498 C174.3459,40.236 175.8269,40.815 177.3079,40.815 L177.7579,40.815 L178.2079,41.266 L177.2429,47.124 L176.7919,47.575 C176.7279,47.575 176.0839,47.639 175.5689,47.639 C173.1229,47.639 166.6209,46.995 166.6209,39.592 L166.6209,1.352 Z" id="Fill-16"></path>
                    <path d="M195.012,19.6352 C195.012,9.0122 202.094,3.3472 213.166,3.3472 C226.556,3.3472 229.776,13.2612 229.776,13.2612 L229.518,13.8412 L223.209,16.4802 L222.565,16.2872 C222.565,16.2872 220.119,10.4292 213.166,10.4292 C207.372,10.4292 203.123,13.7122 203.123,20.0852 L203.123,31.6092 C203.123,38.1752 207.372,41.1362 213.166,41.1362 C221.471,41.1362 223.273,35.1502 223.273,35.1502 L223.917,34.9562 L230.226,37.2742 L230.484,37.8532 C230.484,37.8532 227.844,48.2182 213.166,48.2182 C202.094,48.2182 195.012,42.6822 195.012,32.1242 L195.012,19.6352 Z" id="Fill-18"></path>
                    <path d="M247.9339,41.5874 C251.6029,41.5874 253.8559,39.4624 253.8559,35.4714 L253.8559,26.9744 C253.8559,22.9824 251.6029,20.9224 247.9339,20.9224 C244.1359,20.9224 242.0109,22.9824 242.0109,26.9744 L242.0109,35.4714 C242.0109,39.4624 244.1359,41.5874 247.9339,41.5874 L247.9339,41.5874 Z M234.2859,26.0084 C234.2859,18.4114 240.1439,14.2914 247.9339,14.2914 C255.7239,14.2914 261.5819,18.4114 261.5819,26.0084 L261.5819,36.5024 C261.5819,44.0984 255.7239,48.2184 247.9339,48.2184 C240.1439,48.2184 234.2859,44.0984 234.2859,36.5024 L234.2859,26.0084 Z" id="Fill-20"></path>
                    <path d="M268.9886,22.5317 L267.1216,15.9657 L267.5076,15.4507 L273.7526,14.6137 L274.2676,14.9997 L276.3276,20.1497 C277.6786,16.5447 280.8336,14.2917 284.6966,14.2917 C288.4946,14.2917 292.0996,16.2877 293.7096,20.2787 C295.1256,16.7387 298.8596,14.2917 302.7216,14.2917 C308.0006,14.2917 312.7006,18.0897 312.7006,25.6217 L312.7006,46.9947 L312.2496,47.4457 L305.4266,47.4457 L304.9746,46.9947 L304.9746,26.9737 C304.9746,22.5317 302.7866,20.7297 299.6966,20.7297 C298.6016,20.7297 295.7696,21.5017 294.2236,21.8877 C294.4816,22.9827 294.6746,24.2697 294.6746,25.6217 L294.6746,46.9947 L294.2236,47.4457 L287.4006,47.4457 L286.9496,46.9947 L286.9496,26.9737 C286.9496,22.5317 284.7606,20.7297 281.6706,20.7297 C280.5756,20.7297 278.2586,21.3087 276.7136,21.6947 L276.7136,46.9947 L276.2626,47.4457 L269.4386,47.4457 L268.9886,46.9947 L268.9886,22.5317 Z" id="Fill-22"></path>
                    <path d="M321.0091,22.5317 L319.1431,15.9657 L319.5291,15.4507 L325.7741,14.6137 L326.2881,14.9997 L328.3481,20.1497 C329.7001,16.5447 332.8551,14.2917 336.7171,14.2917 C340.5161,14.2917 344.1201,16.2877 345.7301,20.2787 C347.1471,16.7387 350.8801,14.2917 354.7421,14.2917 C360.0221,14.2917 364.7211,18.0897 364.7211,25.6217 L364.7211,46.9947 L364.2711,47.4457 L357.4471,47.4457 L356.9961,46.9947 L356.9961,26.9737 C356.9961,22.5317 354.8071,20.7297 351.7171,20.7297 C350.6221,20.7297 347.7901,21.5017 346.2451,21.8877 C346.5021,22.9827 346.6961,24.2697 346.6961,25.6217 L346.6961,46.9947 L346.2451,47.4457 L339.4211,47.4457 L338.9711,46.9947 L338.9711,26.9737 C338.9711,22.5317 336.7811,20.7297 333.6921,20.7297 C332.5971,20.7297 330.2801,21.3087 328.7351,21.6947 L328.7351,46.9947 L328.2831,47.4457 L321.4601,47.4457 L321.0091,46.9947 L321.0091,22.5317 Z" id="Fill-24"></path>
                    <path d="M372.3216,15.9013 L372.7726,15.4503 L379.5956,14.5493 L380.0476,15.0003 L380.0476,35.5363 C380.0476,39.9783 382.6866,41.7803 385.7766,41.7803 C386.8716,41.7803 389.3176,41.2013 390.8626,40.8153 L390.8626,15.9013 L391.3126,15.4503 L398.1366,14.5493 L398.5876,15.0003 L398.5876,39.9783 L400.4546,46.5443 L400.0676,47.0593 L393.8236,47.8963 L393.3086,47.5103 L391.2486,42.3593 C389.8966,45.9653 386.6136,48.2183 382.7506,48.2183 C377.4716,48.2183 372.3216,44.4203 372.3216,36.8883 L372.3216,15.9013 Z" id="Fill-26"></path>
                    <path d="M407.346,22.5317 L405.48,15.9657 L405.866,15.4507 L412.111,14.6137 L412.625,14.9997 L414.685,20.1497 C416.037,16.5447 419.835,14.2917 423.698,14.2917 C428.977,14.2917 433.998,18.0897 433.998,25.6217 L433.998,46.9947 L433.547,47.4457 L426.724,47.4457 L426.273,46.9947 L426.273,26.9737 C426.273,22.5317 423.762,20.7297 420.672,20.7297 C419.577,20.7297 416.617,21.3087 415.072,21.6947 L415.072,46.9947 L414.62,47.4457 L407.797,47.4457 L407.346,46.9947 L407.346,22.5317 Z" id="Fill-28"></path>
                    <path d="M441.9847,15.9013 L442.4347,15.4503 L449.2587,14.5493 L449.7097,15.0003 L449.7097,46.9953 L449.2587,47.4453 L442.4347,47.4453 L441.9847,46.9953 L441.9847,15.9013 Z M441.8557,8.3693 L441.8557,1.4163 L442.3057,1.0303 L449.4527,1.0303 L449.9027,1.4163 L449.9027,8.3693 L449.4527,8.7553 L442.3057,8.7553 L441.8557,8.3693 Z" id="Fill-30"></path>
                    <path d="M459.2377,21.6948 L455.7607,21.6948 L455.3107,21.2448 L455.3107,15.5148 L455.7607,15.0648 L459.6887,15.0648 L460.4617,8.4338 L460.9117,7.9828 L466.5117,7.1458 L466.9637,7.5968 L466.9637,15.0648 L477.1987,15.0648 L477.6497,15.5148 L476.2327,21.2448 L475.7827,21.6948 L466.9637,21.6948 L466.9637,35.2788 C466.9637,38.8838 468.5727,41.4588 471.3407,41.4588 C473.8507,41.4588 476.3617,39.9138 476.3617,39.9138 L477.0067,40.0428 L479.5807,44.9998 L479.4527,45.6428 C477.0067,47.3168 473.7867,48.2178 470.5677,48.2178 C464.1947,48.2178 459.2377,43.9048 459.2377,35.5358 L459.2377,21.6948 Z" id="Fill-32"></path>
                    <path d="M483.8968,15.9013 L484.3468,15.4503 L491.1708,14.5493 L491.6218,15.0003 L491.6218,46.9953 L491.1708,47.4453 L484.3468,47.4453 L483.8968,46.9953 L483.8968,15.9013 Z M483.7678,8.3693 L483.7678,1.4163 L484.2178,1.0303 L491.3648,1.0303 L491.8148,1.4163 L491.8148,8.3693 L491.3648,8.7553 L484.2178,8.7553 L483.7678,8.3693 Z" id="Fill-34"></path>
                    <path d="M511.1293,28.3256 C514.4123,28.3256 516.9233,27.4886 516.9233,24.2056 C516.9233,22.5966 515.5073,20.9866 512.1593,20.9866 C508.6183,20.9866 506.5593,22.9186 506.5593,26.9096 L506.5593,27.4886 C507.4593,28.0036 509.4553,28.3256 511.1293,28.3256 L511.1293,28.3256 Z M498.8333,26.2016 C498.8333,18.7336 504.3053,14.2916 512.3533,14.2916 C521.5583,14.2916 524.8413,19.6356 524.8413,24.4636 C524.8413,30.9006 519.6923,34.5056 514.1543,34.5056 C511.0653,34.5056 507.8463,33.2826 506.1083,30.3216 L506.5593,33.4116 L506.5593,35.0206 C506.5593,39.6566 508.8763,41.5876 512.4813,41.5876 C515.7643,41.5876 517.5023,40.3646 518.7263,38.3686 L519.3053,38.0466 L525.2923,39.9776 L525.6133,40.5576 C523.6833,45.4506 518.6613,48.2186 512.7383,48.2186 C503.9833,48.2186 498.8333,44.2266 498.8333,36.5016 L498.8333,26.2016 Z" id="Fill-36"></path>
                    <path d="M529.8656,43.9692 L533.5356,39.2052 L534.1786,39.1412 C534.1786,39.1412 537.5916,41.5872 541.0666,41.5872 C543.7706,41.5872 546.2816,40.8792 546.2816,37.9182 C546.2816,35.9872 543.6416,35.1502 540.8096,34.3132 C536.0456,32.8962 530.2516,30.9652 530.2516,24.3992 C530.2516,17.3172 536.8186,14.2912 543.1916,14.2912 C549.0506,14.2912 553.1706,17.5112 553.1706,17.5112 L553.2346,18.1542 L549.5006,22.9182 L548.9216,22.9822 C548.9216,22.9822 546.0236,20.9222 543.3206,20.9222 C540.2946,20.9222 538.1056,22.2102 538.1056,24.3992 C538.1056,26.5882 540.8096,27.4252 543.7706,28.2612 C548.5346,29.6132 554.1356,31.2872 554.1356,37.9182 C554.1356,45.8362 548.0846,48.2182 541.2606,48.2182 C537.0756,48.2182 532.9556,46.8022 529.9946,44.6132 L529.8656,43.9692 Z" id="Fill-38"></path>
                </g>
            </g>
        </g>
    </g>
</svg>